:SAMPLES-PER-SECOND 30
:FULLY-SPECIFIED
:DEGREES
717
root  15.5398 35.2972 81.6494 5.6795 66.9635 -0.952425
LeftUpLeg  -11.5485 3.97082 1.72358
LeftLeg  13.6603 -4.58718 -0.807734
LeftFoot  0.399305 -0.0161208 -0.0401908
LeftToes  -18.6814 6.91067e-007 1.07128e-007
Spine  1.9751 0.984055 1.15822
Spine1  3.75057 1.95839 2.30272
RightShoulder  0.0902291 6.39739 7.56039
RightArm  -30.9545 -12.0698 72.6227
RightForeArm  24.5683 16.1653 2.92648
RightHand  0.506912 -10.2474 -5.27554
LeftShoulder1  0.0291154 -0.619328 -8.90396
LeftArm  -10.8536 9.76876 -72.317
LeftForeArm  25.5525 -18.625 -3.4008
LeftHand  0.135839 6.36888 2.069
HEad  -13.5368 45.659 -11.5608
RightUpLeg  -11.2189 -4.55451 -3.04256
RightLeg  11.5579 11.2739 1.55234
RightFoot  1.44485 0.0153216 0.310481
RightToes  -31.4302 -0.151426 -0.259529
718
root  15.5338 35.3057 81.6823 5.56722 66.9651 -1.08952
LeftUpLeg  -11.4443 3.94597 1.83318
LeftLeg  13.4379 -4.5602 -0.784766
LeftFoot  0.50371 -0.0153604 -0.0481782
LeftToes  -18.7005 6.91067e-007 1.07128e-007
Spine  2.03213 0.92413 1.20265
Spine1  3.8736 1.84769 2.37344
RightShoulder  0.0897756 6.35691 7.66911
RightArm  -30.8153 -11.9418 72.5496
RightForeArm  23.881 16.6001 3.00987
RightHand  0.377067 -10.5407 -3.71363
LeftShoulder1  0.0272992 -0.717578 -8.90852
LeftArm  -13.3487 10.0865 -72.5383
LeftForeArm  19.2891 -20.2381 -3.72129
LeftHand  -0.00261372 7.66307 -0.408602
HEad  -13.3378 45.312 -11.6627
RightUpLeg  -11.1478 -4.6385 -2.92787
RightLeg  11.4029 11.3578 1.53268
RightFoot  1.52371 0.0145001 0.327225
RightToes  -31.4269 -0.151044 -0.259161
719
root  15.5142 35.3122 81.7086 5.58228 66.9456 -1.09406
LeftUpLeg  -11.3933 3.86827 1.88597
LeftLeg  13.2626 -4.45486 -0.752688
LeftFoot  0.612909 -0.0145305 -0.0550342
LeftToes  -18.8287 6.91067e-007 1.07128e-007
Spine  2.08479 0.850768 1.2298
Spine1  3.98516 1.71429 2.40876
RightShoulder  0.0890473 6.28917 7.71534
RightArm  -30.8996 -11.5677 72.3564
RightForeArm  22.7728 17.0322 3.09315
RightHand  0.209116 -10.6863 -1.86448
LeftShoulder1  0.025329 -0.758836 -8.95594
LeftArm  -17.3717 10.7185 -72.8521
LeftForeArm  9.16768 -21.7198 -4.01688
LeftHand  -0.164 9.62003 -2.31704
HEad  -13.0349 45.031 -11.6824
RightUpLeg  -11.1383 -4.69658 -2.86859
RightLeg  11.3059 11.4505 1.52546
RightFoot  1.56102 0.0140208 0.336833
RightToes  -31.2787 -0.150777 -0.258901
720
root  15.4923 35.3177 81.7361 5.64 66.7999 -1.0436
LeftUpLeg  -11.3504 3.88709 1.91346
LeftLeg  13.1523 -4.29725 -0.717652
LeftFoot  0.705361 -0.013675 -0.05996
LeftToes  -18.8788 6.91067e-007 1.07128e-007
Spine  2.12918 0.844671 1.22195
Spine1  4.07608 1.71834 2.37335
RightShoulder  0.0880202 6.35637 7.84798
RightArm  -32.8171 -11.1373 71.9565
RightForeArm  19.164 17.493 3.18227
RightHand  -0.0458079 -10.9972 0.845354
LeftShoulder1  0.0241086 -0.774282 -9.03163
LeftArm  -21.9248 11.4264 -73.1541
LeftForeArm  -2.17148 -23.1618 -4.30231
LeftHand  -0.438971 11.0907 -4.88596
HEad  -12.2878 44.7097 -11.4819
RightUpLeg  -11.1784 -4.66213 -2.8218
RightLeg  11.2889 11.5357 1.5332
RightFoot  1.58996 0.0135092 0.344775
RightToes  -31.2616 -0.150636 -0.25876
721
root  15.4693 35.3194 81.7655 5.52667 66.7125 -1.15359
LeftUpLeg  -11.3544 3.94238 2.01609
LeftLeg  13.1727 -4.25948 -0.71293
LeftFoot  0.719048 -0.0128886 -0.0613712
LeftToes  -18.8539 6.91067e-007 1.07128e-007
Spine  2.17674 0.834713 1.22608
Spine1  4.16929 1.71221 2.35893
RightShoulder  0.0866373 6.5013 7.97373
RightArm  -36.4717 -10.7167 71.4316
RightForeArm  10.9974 17.7546 3.23017
RightHand  -0.455007 -12.5708 4.49698
LeftShoulder1  0.0230767 -0.679356 -9.10652
LeftArm  -25.972 12.1411 -73.5201
LeftForeArm  -12.8946 -25.1526 -4.70541
LeftHand  -0.527953 11.8027 -5.47116
HEad  -11.4227 44.3316 -11.0688
RightUpLeg  -11.1465 -4.63665 -2.71374
RightLeg  11.1842 11.5931 1.51933
RightFoot  1.63933 0.0126625 0.355411
RightToes  -31.1448 -0.150633 -0.258749
722
root  15.4339 35.3234 81.7883 5.65198 66.5795 -1.12328
LeftUpLeg  -11.4687 4.11188 2.05502
LeftLeg  13.1564 -4.30888 -0.719905
LeftFoot  0.786144 -0.0116148 -0.0678026
LeftToes  -18.9009 6.91067e-007 1.07128e-007
Spine  2.17005 0.846798 1.21639
Spine1  4.15667 1.73296 2.3433
RightShoulder  0.0836118 6.66077 7.99835
RightArm  -40.0049 -10.5916 70.9504
RightForeArm  1.00227 18.4308 3.35303
RightHand  -0.912374 -15.0218 7.27863
LeftShoulder1  0.0222064 -0.524419 -9.14233
LeftArm  -28.5913 12.693 -73.6973
LeftForeArm  -20.0751 -27.7625 -5.26388
LeftHand  -0.381914 12.6461 -3.81348
HEad  -10.7933 43.8729 -10.7813
RightUpLeg  -11.2073 -4.60635 -2.64874
RightLeg  10.9781 11.6753 1.4876
RightFoot  1.77418 0.0104856 0.38384
RightToes  -31.3054 -0.150778 -0.258879
723
root  15.412 35.3408 81.8268 5.81997 66.5392 -1.09981
LeftUpLeg  -11.4094 4.19026 2.11098
LeftLeg  12.693 -4.34749 -0.69022
LeftFoot  1.09312 -0.00908087 -0.0911457
LeftToes  -19.1394 6.91067e-007 1.07128e-007
Spine  2.13541 0.855342 1.21005
Spine1  4.09711 1.73427 2.35796
RightShoulder  0.072932 6.61827 7.92845
RightArm  -42.0796 -10.4479 70.547
RightForeArm  -5.34643 19.5883 3.57236
RightHand  -1.05786 -15.7386 8.00929
LeftShoulder1  0.0214708 -0.3237 -9.01908
LeftArm  -30.3325 12.6137 -73.4766
LeftForeArm  -22.6887 -29.4327 -5.63982
LeftHand  -0.254364 12.7903 -2.63768
HEad  -10.4677 43.4331 -10.7119
RightUpLeg  -11.148 -4.831 -2.5556
RightLeg  10.4937 11.9361 1.41876
RightFoot  2.00625 0.00637223 0.439132
RightToes  -31.3369 -0.151082 -0.259159
724
root  15.397 35.3618 81.8671 6.07208 66.607 -1.01665
LeftUpLeg  -11.2914 4.12641 2.13199
LeftLeg  12.0496 -4.3184 -0.635973
LeftFoot  1.4489 -0.00627412 -0.115944
LeftToes  -19.2118 6.91067e-007 1.07128e-007
Spine  2.06704 0.834495 1.2043
Spine1  3.97169 1.67509 2.37819
RightShoulder  0.0606574 6.53375 7.71536
RightArm  -42.8117 -10.0877 70.0748
RightForeArm  -7.0052 21.0624 3.86519
RightHand  -0.961181 -15.4337 7.45137
LeftShoulder1  0.0208429 -0.299604 -8.78733
LeftArm  -31.7576 12.1755 -72.8261
LeftForeArm  -22.7579 -29.8206 -5.73037
LeftHand  -0.274394 12.7044 -2.83288
HEad  -10.3979 43.1848 -10.8492
RightUpLeg  -11.0644 -5.09038 -2.49172
RightLeg  9.95496 12.1318 1.32708
RightFoot  2.23284 0.00210862 0.493215
RightToes  -31.2078 -0.151557 -0.259601
725
root  15.3825 35.3736 81.9055 6.40069 66.7746 -0.865316
LeftUpLeg  -11.2757 4.01918 2.12603
LeftLeg  11.5595 -4.3433 -0.601698
LeftFoot  1.76458 -0.00336292 -0.139467
LeftToes  -19.49 6.91067e-007 1.07128e-007
Spine  1.99654 0.80655 1.19806
Spine1  3.83373 1.6078 2.38317
RightShoulder  0.0537795 6.52508 7.48556
RightArm  -42.3273 -9.65028 69.3004
RightForeArm  -6.81469 22.5953 4.17936
RightHand  -0.820359 -15.0241 6.58234
LeftShoulder1  0.0202958 -0.482454 -8.58536
LeftArm  -32.8035 11.5671 -71.7727
LeftForeArm  -22.4349 -29.377 -5.62755
LeftHand  -0.343842 12.5282 -3.49973
HEad  -10.444 43.3442 -11.1947
RightUpLeg  -11.0953 -5.27993 -2.45879
RightLeg  9.66321 12.1551 1.2675
RightFoot  2.35087 -0.000562948 0.518703
RightToes  -31.407 -0.152212 -0.260216
726
root  15.3801 35.3788 81.9584 6.54079 67.0648 -0.809036
LeftUpLeg  -11.2868 3.94049 2.18076
LeftLeg  11.3739 -4.51195 -0.610067
LeftFoot  1.88255 -0.000868728 -0.153495
LeftToes  -19.5 6.91067e-007 1.07128e-007
Spine  1.96277 0.779774 1.2058
Spine1  3.76388 1.55469 2.39747
RightShoulder  0.0523198 6.5156 7.2867
RightArm  -41.6461 -9.0082 68.3891
RightForeArm  -6.18556 23.1461 4.29496
RightHand  -0.762159 -14.8151 6.22456
LeftShoulder1  0.0198026 -0.647472 -8.33927
LeftArm  -33.4418 10.6878 -70.6106
LeftForeArm  -21.6445 -28.2999 -5.38165
LeftHand  -0.393459 12.5275 -3.95132
HEad  -10.3971 43.7019 -11.4911
RightUpLeg  -11.0586 -5.3846 -2.38655
RightLeg  9.55035 11.9649 1.22429
RightFoot  2.30297 -0.00067915 0.500301
RightToes  -31.2154 -0.15306 -0.261013
727
root  15.3822 35.3778 82.0047 6.57574 67.3659 -0.773877
LeftUpLeg  -11.3703 3.81115 2.24163
LeftLeg  11.5282 -4.66228 -0.643096
LeftFoot  1.84262 0.00101607 -0.154924
LeftToes  -19.5868 6.91067e-007 1.07128e-007
Spine  1.96493 0.794307 1.23753
Spine1  3.76655 1.5916 2.44994
RightShoulder  0.0533466 6.48751 7.0884
RightArm  -40.9659 -8.24757 67.4182
RightForeArm  -5.27347 22.9036 4.24594
RightHand  -0.73978 -14.6956 6.09955
LeftShoulder1  0.0193364 -0.723595 -8.13017
LeftArm  -33.9357 9.54588 -69.5446
LeftForeArm  -19.8528 -26.6214 -5.00978
LeftHand  -0.407562 12.2869 -4.15273
HEad  -10.0078 43.9821 -11.637
RightUpLeg  -10.9953 -5.46813 -2.328
RightLeg  9.57249 11.7354 1.20567
RightFoot  2.20047 -0.000298461 0.469617
RightToes  -31.215 -0.154111 -0.262005
